<svg id="Capa_1" enable-background="new 0 0 510 510" height="512" viewBox="0 0 510 510" width="512" xmlns="http://www.w3.org/2000/svg" xmlns:xlink="http://www.w3.org/1999/xlink"><linearGradient id="lg1"><stop offset="0" stop-color="#fecec8"/><stop offset=".5725" stop-color="#fe73c5"/><stop offset="1" stop-color="#f1239a"/></linearGradient><linearGradient id="SVGID_1_" gradientUnits="userSpaceOnUse" x1="322.684" x2="545.561" xlink:href="#lg1" y1="328.917" y2="328.917"/><linearGradient id="SVGID_2_" gradientUnits="userSpaceOnUse" x1="289.405" x2="503.036" xlink:href="#lg1" y1="328.917" y2="328.917"/><linearGradient id="lg2"><stop offset="0" stop-color="#c2fae3"/><stop offset=".5725" stop-color="#00f2a6"/><stop offset="1" stop-color="#07b27b"/></linearGradient><linearGradient id="SVGID_3_" gradientUnits="userSpaceOnUse" x1="31.691" x2="179.525" xlink:href="#lg2" y1="436.083" y2="436.083"/><linearGradient id="SVGID_4_" gradientUnits="userSpaceOnUse" x1="-29.061" x2="168.127" xlink:href="#lg2" y1="436.177" y2="436.177"/><linearGradient id="lg3"><stop offset="0" stop-color="#fff3be"/><stop offset=".5725" stop-color="#ffd15b"/><stop offset="1" stop-color="#eca026"/></linearGradient><linearGradient id="SVGID_5_" gradientUnits="userSpaceOnUse" x1="121.499" x2="460.746" xlink:href="#lg3" y1="412.673" y2="412.673"/><linearGradient id="SVGID_6_" gradientUnits="userSpaceOnUse" x1="132.087" x2="385.59" xlink:href="#lg3" y1="412.673" y2="412.673"/><linearGradient id="lg4"><stop offset="0" stop-color="#99e6fc"/><stop offset=".5042" stop-color="#01d0fb"/><stop offset=".5857" stop-color="#08c7f7"/><stop offset=".7226" stop-color="#1bacec"/><stop offset=".8971" stop-color="#3a82dc"/><stop offset="1" stop-color="#4f66d0"/></linearGradient><linearGradient id="SVGID_7_" gradientUnits="userSpaceOnUse" x1="-22.206" x2="337.84" xlink:href="#lg4" y1="187.793" y2="187.793"/><linearGradient id="SVGID_8_" gradientUnits="userSpaceOnUse" x1="-107.052" x2="291.719" xlink:href="#lg4" y1="187.799" y2="187.799"/><linearGradient id="SVGID_9_" gradientUnits="userSpaceOnUse" x1="361.597" x2="509.43" xlink:href="#lg2" y1="73.917" y2="73.917"/><linearGradient id="SVGID_10_" gradientUnits="userSpaceOnUse" x1="252.983" x2="505.328" xlink:href="#lg2" y1="88.166" y2="88.166"/><g><path d="m484.975 510h-131.017c-13.508 0-24.458-10.95-24.458-24.458v-313.251c0-13.508 10.95-24.458 24.458-24.458h131.017c13.508 0 24.458 10.95 24.458 24.458v313.251c0 13.508-10.95 24.458-24.458 24.458z" fill="url(#SVGID_1_)"/><path d="m484.975 147.833h-40.36c13.508 0 24.458 10.95 24.458 24.458v313.251c0 13.508-10.95 24.458-24.458 24.458h40.36c13.508 0 24.458-10.95 24.458-24.458v-313.251c0-13.508-10.95-24.458-24.458-24.458z" fill="url(#SVGID_2_)"/><g><circle cx="105.608" cy="436.083" fill="url(#SVGID_3_)" r="73.917"/></g><path d="m163.93 390.701c-.001-.007-.004-.029-.004-.029-12.568-16.107-31.667-26.87-53.316-28.318v96.101c0 14.812-10.435 27.55-24.944 30.532-6.413 1.318-13.054 2.011-19.857 2.011-3.461 0-6.879-.182-10.248-.531 14.036 12.923 33.079 20.491 53.894 19.435 38.142-1.935 68.802-33.215 70.03-71.386.581-18.052-5.332-34.696-15.555-47.815z" fill="url(#SVGID_4_)"/><path d="m411.617 510h-251.326c-13.508 0-24.458-10.95-24.458-24.458v-145.738c0-13.508 10.95-24.458 24.458-24.458h251.326c13.508 0 24.458 10.95 24.458 24.458v145.739c0 13.507-10.95 24.457-24.458 24.457z" fill="url(#SVGID_5_)"/><path d="m411.617 315.346h-40.36c13.508 0 24.458 10.95 24.458 24.458v145.739c0 13.508-10.95 24.458-24.458 24.458h40.36c13.508 0 24.458-10.95 24.458-24.458v-145.739c0-13.508-10.951-24.458-24.458-24.458z" fill="url(#SVGID_6_)"/><path d="m106.843 80.358-100.826 174.638c-15.486 26.822 3.872 60.35 34.843 60.35h201.651c30.972 0 50.329-33.528 34.843-60.35l-100.825-174.638c-15.485-26.823-54.2-26.823-69.686 0z" fill="url(#SVGID_7_)"/><path d="m277.355 254.996-100.826-174.638c-11.74-20.335-36.825-25.238-55.023-14.74 5.806 3.349 10.918 8.253 14.663 14.74l100.826 174.638c15.486 26.822-3.872 60.35-34.843 60.35h40.36c30.971 0 50.329-33.528 34.843-60.35z" fill="url(#SVGID_8_)"/><g><circle cx="435.513" cy="73.917" fill="url(#SVGID_9_)" r="73.917"/><path d="m493.809 28.5c.016.735.028 1.471.028 2.209 0 54.192-43.931 98.123-98.123 98.123-3.461 0-6.879-.182-10.248-.531 13.166 12.122 30.738 19.533 50.047 19.533 40.823 0 73.917-33.094 73.917-73.917 0-17.129-5.842-32.884-15.621-45.417z" fill="url(#SVGID_10_)"/></g></g></svg>