<?xml version="1.0" encoding="iso-8859-1"?>
<!-- Generator: Adobe Illustrator 21.0.0, SVG Export Plug-In . SVG Version: 6.00 Build 0)  -->
<svg version="1.1" id="Capa_1" xmlns="http://www.w3.org/2000/svg" xmlns:xlink="http://www.w3.org/1999/xlink" x="0px" y="0px"
	 viewBox="0 0 512 512" style="enable-background:new 0 0 512 512;" xml:space="preserve">
<path style="fill:#65657F;" d="M283.527,465.455v30.59c0,4.665-3.784,8.448-8.448,8.448H235.92c-4.665,0-8.448-3.784-8.448-8.448
	v-30.59H283.527z"/>
<path style="fill:#54546D;" d="M252.366,496.044v-30.59h-24.894v30.59c0,4.665,3.784,8.448,8.448,8.448h24.894
	C256.15,504.493,252.366,500.709,252.366,496.044z"/>
<polygon style="fill:#358DCD;" points="448.688,315.308 336.078,315.308 175.922,315.308 63.312,315.308 54.97,315.308 
	54.97,364.936 63.312,365.917 106.854,387.899 130.878,400.031 212.958,441.471 299.042,441.471 381.122,400.031 405.146,387.899 
	448.688,365.917 457.524,365.926 457.524,315.308 "/>
<polygon style="fill:#366FCC;" points="405.146,354.798 381.122,366.93 299.042,408.371 212.958,408.371 130.878,366.93 
	106.854,354.798 63.312,332.817 54.97,331.836 54.97,364.936 63.312,365.917 106.854,387.899 130.878,400.031 212.958,441.471 
	299.042,441.471 381.122,400.031 405.146,387.899 448.688,365.917 457.524,365.926 457.524,332.826 448.688,332.817 "/>
<path style="fill:#EDE6F5;" d="M299.042,330.323v136.814c0,1.682-0.45,3.283-1.261,4.685c-0.821,1.401-2.002,2.593-3.453,3.423
	c-1.401,0.801-2.993,1.221-4.614,1.221h-67.426c-1.622,0-3.213-0.42-4.615-1.221c-2.913-1.662-4.715-4.755-4.715-8.108V330.323
	v-62.271h86.084V330.323z"/>
<path style="fill:#E0D3F2;" d="M248.493,467.136V330.323v-62.271h-35.535v62.271v136.814c0,3.353,1.802,6.446,4.715,8.108
	c1.401,0.801,2.993,1.221,4.615,1.221h35.535c-1.622,0-3.213-0.42-4.615-1.221C250.294,473.582,248.493,470.489,248.493,467.136z"/>
<path style="fill:#358DCD;" d="M260.394,183.179c4.534,0,8.638,2.713,10.42,6.887l28.228,66.185v22.812h-86.084V256.25
	l27.537-66.095c1.762-4.224,5.886-6.977,10.46-6.977H260.394z"/>
<path style="fill:#366FCC;" d="M273.471,196.296l-2.657-6.23c-1.782-4.174-5.886-6.887-10.42-6.887h-9.439
	c-4.574,0-8.699,2.753-10.46,6.977l-27.537,66.095v22.812h35.535V256.25L273.471,196.296z"/>
<path style="fill:#82DBBA;" d="M273.017,334.357v88.446c0,4.204-3.413,7.617-7.617,7.617h-18.798c-4.204,0-7.617-3.413-7.617-7.617
	v-88.937c0-8.558,3.924-16.646,10.64-21.941c1.772-1.391,3.914-2.092,6.046-2.092c2.052,0,4.104,0.641,5.836,1.922l0.24,0.18
	C268.833,317.21,273.017,325.518,273.017,334.357z"/>
<g>
	<path style="fill:#AB9DD6;" d="M212.958,307.801v45.795c0,4.284-3.473,7.758-7.758,7.758h-21.521c-4.284,0-7.758-3.473-7.758-7.758
		v-45.795c0-10.23,8.288-18.518,18.518-18.518c5.115,0,9.75,2.072,13.093,5.425C210.886,298.051,212.958,302.686,212.958,307.801z"
		/>
	<path style="fill:#AB9DD6;" d="M336.078,307.801v45.795c0,4.284-3.473,7.758-7.758,7.758H306.8c-4.284,0-7.758-3.473-7.758-7.758
		v-45.795c0-10.23,8.288-18.518,18.518-18.518c5.115,0,9.75,2.072,13.093,5.425C334.006,298.051,336.078,302.686,336.078,307.801z"
		/>
</g>
<g>
	<path style="fill:#A095CE;" d="M192.938,353.595v-45.795c0-7.159,4.067-13.356,10.01-16.438c-2.548-1.321-5.438-2.08-8.508-2.08
		c-10.23,0-18.518,8.288-18.518,18.518v45.795c0,4.284,3.473,7.758,7.758,7.758h17.017
		C196.412,361.353,192.938,357.879,192.938,353.595z"/>
	<path style="fill:#A095CE;" d="M316.059,353.595v-45.795c0-7.159,4.067-13.356,10.01-16.438c-2.548-1.321-5.438-2.08-8.508-2.08
		c-10.23,0-18.518,8.288-18.518,18.518v45.795c0,4.284,3.473,7.758,7.758,7.758h17.017
		C319.532,361.353,316.059,357.879,316.059,353.595z"/>
</g>
<g>
	<path style="fill:#AB9DD6;" d="M62.811,316.529v63.442c0,3.533-2.873,6.406-6.406,6.406H42.191c-3.533,0-6.406-2.873-6.406-6.406
		v-63.442c0-5.255,0.891-10.43,2.603-15.335c1.702-4.885,4.224-9.499,7.497-13.613c0.871-1.101,2.142-1.652,3.413-1.652
		c1.271,0,2.542,0.551,3.413,1.652C59.248,295.809,62.811,306.019,62.811,316.529z"/>
	<path style="fill:#AB9DD6;" d="M130.878,368.58v65.704c0,3.944-3.203,7.147-7.147,7.147h-9.73c-3.944,0-7.147-3.203-7.147-7.147
		V368.58c0-3.383,1.151-6.667,3.263-9.299l4.304-5.385c2.282-2.853,6.606-2.853,8.889,0l4.304,5.385
		C129.727,361.913,130.878,365.197,130.878,368.58z"/>
	<path style="fill:#AB9DD6;" d="M476.215,316.529v63.442c0,3.533-2.873,6.406-6.406,6.406h-14.214c-3.533,0-6.406-2.873-6.406-6.406
		v-63.442c0-5.255,0.891-10.43,2.603-15.335c1.702-4.885,4.224-9.499,7.497-13.613c0.871-1.101,2.142-1.652,3.413-1.652
		c1.271,0,2.543,0.551,3.413,1.652C472.652,295.809,476.215,306.019,476.215,316.529z"/>
	<path style="fill:#AB9DD6;" d="M405.146,368.58v65.704c0,3.944-3.203,7.147-7.147,7.147h-9.729c-3.944,0-7.147-3.203-7.147-7.147
		V368.58c0-3.383,1.151-6.667,3.263-9.299l4.304-5.385c2.282-2.853,6.606-2.853,8.889,0l4.304,5.385
		C403.995,361.913,405.146,365.197,405.146,368.58z"/>
	<path style="fill:#AB9DD6;" d="M46.723,379.971v-63.442c0-5.255,0.891-10.43,2.603-15.335c1.325-3.803,3.154-7.439,5.44-10.806
		c-0.65-0.957-1.331-1.897-2.055-2.808c-0.871-1.101-2.142-1.652-3.413-1.652s-2.542,0.551-3.413,1.652
		c-3.273,4.114-5.796,8.729-7.497,13.613c-1.712,4.905-2.603,10.08-2.603,15.335v63.442c0,3.533,2.873,6.406,6.406,6.406h10.938
		C49.595,386.377,46.723,383.505,46.723,379.971z"/>
</g>
<g>
	<path style="fill:#A095CE;" d="M117.792,434.284V368.58c0-3.383,1.151-6.667,3.263-9.299l3.279-4.104l-1.025-1.282
		c-2.282-2.853-6.606-2.853-8.889,0l-4.304,5.385c-2.112,2.633-3.263,5.916-3.263,9.299v65.704c0,3.944,3.203,7.147,7.147,7.147
		h9.729c0.204,0,0.404-0.014,0.605-0.031C120.674,441.093,117.792,438.024,117.792,434.284z"/>
	<path style="fill:#A095CE;" d="M460.126,379.971v-63.442c0-5.255,0.891-10.43,2.603-15.335c1.325-3.803,3.154-7.439,5.44-10.806
		c-0.65-0.957-1.331-1.897-2.055-2.808c-0.871-1.101-2.142-1.652-3.413-1.652c-1.271,0-2.542,0.551-3.413,1.652
		c-3.273,4.114-5.796,8.729-7.497,13.613c-1.712,4.905-2.603,10.08-2.603,15.335v63.442c0,3.533,2.873,6.406,6.406,6.406h10.938
		C462.999,386.377,460.126,383.505,460.126,379.971z"/>
	<path style="fill:#A095CE;" d="M392.06,434.284V368.58c0-3.383,1.151-6.667,3.263-9.299l3.279-4.104l-1.025-1.282
		c-2.282-2.853-6.606-2.853-8.889,0l-4.304,5.385c-2.112,2.633-3.263,5.916-3.263,9.299v65.704c0,3.944,3.203,7.147,7.147,7.147
		h9.729c0.204,0,0.404-0.014,0.605-0.031C394.942,441.093,392.06,438.024,392.06,434.284z"/>
</g>
<g>
	<path style="fill:#FFEA27;" d="M362.424,219.084c1.762,0.861,1.481,3.423-0.39,3.994c-7.688,2.332-13.153,7.808-16.256,16.606
		c-0.651,1.842-3.273,1.902-4.004,0.09c-3.193-7.978-9.199-13.293-17.597-16.306c-1.782-0.641-1.942-3.113-0.24-3.944
		c7.898-3.884,13.914-9.699,17.757-17.757c0.791-1.662,3.193-1.592,3.904,0.11C348.771,209.515,354.466,215.18,362.424,219.084z"/>
	<path style="fill:#FFEA27;" d="M98.166,156.022c1.762,0.861,1.481,3.423-0.39,3.994c-7.688,2.332-13.153,7.808-16.256,16.606
		c-0.651,1.842-3.273,1.902-4.004,0.09c-3.193-7.978-9.199-13.293-17.597-16.306c-1.782-0.641-1.942-3.113-0.24-3.944
		c7.898-3.884,13.914-9.699,17.757-17.757c0.791-1.662,3.193-1.592,3.904,0.11C84.513,146.453,90.208,152.119,98.166,156.022z"/>
</g>
<path d="M266.217,305.909l-0.239-0.177c-6.248-4.643-14.883-4.519-20.997,0.298c-8.582,6.761-13.505,16.906-13.505,27.833v9.73
	c0,4.147,3.361,7.507,7.507,7.507s7.507-3.36,7.507-7.507v-9.73c0-6.297,2.836-12.143,7.782-16.039
	c0.801-0.631,1.932-0.648,2.756-0.036l0.238,0.177c5.161,3.834,8.242,9.962,8.242,16.391v88.449c0,0.06-0.048,0.107-0.108,0.107
	h-18.802c-0.06,0-0.108-0.048-0.108-0.107v-49.183c0-4.147-3.361-7.507-7.507-7.507c-4.146,0-7.507,3.36-7.507,7.507v49.183
	c0,8.338,6.784,15.122,15.123,15.122h18.802c8.339,0,15.123-6.784,15.123-15.122v-88.449
	C280.524,323.2,275.177,312.566,266.217,305.909z"/>
<path d="M471.997,282.91c-2.265-2.853-5.653-4.487-9.295-4.487c-3.643,0-7.03,1.636-9.295,4.487
	c-5.738,7.224-9.513,15.841-11.004,24.89h-98.817c0-14.351-11.675-26.025-26.025-26.025c-3.934,0-7.664,0.882-11.011,2.451V256.25
	c0-1.012-0.205-2.014-0.602-2.945l-28.227-66.186c-2.966-6.954-9.768-11.448-17.328-11.448h-9.436
	c-7.628,0-14.453,4.549-17.388,11.591l-27.542,66.1c-0.381,0.915-0.578,1.897-0.578,2.888v27.976
	c-3.346-1.57-7.077-2.451-11.011-2.451c-14.35,0-26.025,11.674-26.025,26.025H69.597c-1.49-9.049-5.266-17.666-11.004-24.89
	c-2.265-2.853-5.653-4.487-9.295-4.487c-3.643,0-7.03,1.636-9.295,4.487c-7.561,9.52-11.725,21.46-11.725,33.62v63.44
	c0,7.673,6.242,13.915,13.915,13.915h14.211c7.672,0,13.915-6.242,13.915-13.915v-2.106l29.028,14.656v41.763
	c0,8.081,6.574,14.656,14.656,14.656h9.727c8.081,0,14.656-6.574,14.656-14.656v-22.053l67.065,33.86v21.046
	c0,6.039,3.26,11.645,8.504,14.629c2.003,1.142,4.226,1.851,6.51,2.1v12.175c0,8.801,7.159,15.96,15.96,15.96h39.15
	c8.801,0,15.96-7.159,15.96-15.96v-12.175c2.285-0.25,4.506-0.958,6.506-2.097c5.248-2.987,8.508-8.593,8.508-14.632v-21.046
	l67.065-33.86v22.053c0,8.081,6.574,14.656,14.656,14.656h9.727c8.081,0,14.656-6.574,14.656-14.656V392.52l29.028-14.656v2.106
	c0,7.673,6.242,13.915,13.915,13.915h14.211c7.672,0,13.915-6.242,13.915-13.915v-63.44
	C483.722,304.37,479.558,292.431,471.997,282.91z M317.56,296.79c6.071,0,11.011,4.94,11.011,11.011v45.796
	c0,0.138-0.112,0.249-0.249,0.249h-21.523c-0.137,0-0.249-0.111-0.249-0.249v-45.796C306.549,301.73,311.489,296.79,317.56,296.79z
	 M247.43,193.039c0.596-1.428,1.981-2.352,3.528-2.352h9.436c1.534,0,2.915,0.912,3.516,2.323l27.625,64.774v13.775h-70.983
	c-0.029,0-0.057,0.004-0.086,0.004v-13.811L247.43,193.039z M183.429,307.801c0-6.071,4.94-11.011,11.011-11.011
	c6.071,0,11.011,4.94,11.011,11.011v45.796c0,0.138-0.112,0.249-0.249,0.249h-21.523c-0.137,0-0.249-0.111-0.249-0.249
	L183.429,307.801L183.429,307.801z M55.304,378.87H43.292v-62.34c0-7.357,2.11-14.602,6.006-20.802
	c3.896,6.2,6.006,13.446,6.006,20.802V378.87z M123.37,433.924h-9.009v-65.348c0-1.669,0.574-3.305,1.617-4.607l2.888-3.611
	l2.889,3.612c1.042,1.301,1.616,2.938,1.616,4.606V433.924z M138.385,395.409v-26.834c0-5.067-1.743-10.034-4.907-13.988
	l-4.307-5.384c-2.518-3.148-6.274-4.954-10.305-4.954s-7.788,1.807-10.304,4.953l-4.307,5.384
	c-3.165,3.954-4.908,8.922-4.908,13.989v7.124l-29.028-14.656v-38.227h98.096v30.781c0,8.416,6.848,15.264,15.264,15.264h21.523
	c0.084,0,0.165-0.011,0.249-0.013v60.422L138.385,395.409z M276.52,496.04c0,0.522-0.423,0.945-0.945,0.945h-39.15
	c-0.521,0-0.945-0.424-0.945-0.945v-12.068h41.04V496.04z M397.638,433.924h-9.009v-65.348c0-1.669,0.574-3.305,1.617-4.607
	l2.888-3.611l2.889,3.612c1.042,1.301,1.616,2.938,1.616,4.606V433.924z M441.181,361.296L412.653,375.7v-7.124
	c0-5.067-1.743-10.034-4.907-13.988l-4.307-5.384c-2.518-3.148-6.274-4.954-10.305-4.954s-7.788,1.807-10.304,4.953l-4.307,5.384
	c-3.165,3.954-4.908,8.922-4.908,13.989v26.834l-67.065,33.86v-17.661c0-4.147-3.361-7.507-7.507-7.507
	c-4.146,0-7.507,3.36-7.507,7.507v55.527c0,0.653-0.353,1.26-0.925,1.586c-0.271,0.154-0.582,0.236-0.897,0.236h-67.424
	c-0.315,0-0.626-0.082-0.902-0.239c-0.568-0.322-0.92-0.93-0.92-1.583V286.57c0.029,0,0.057,0.004,0.086,0.004h70.983v95.006
	c0,4.147,3.361,7.507,7.507,7.507c4.146,0,7.507-3.36,7.507-7.507v-12.732c0.084,0.001,0.165,0.013,0.249,0.013h21.523
	c8.416,0,15.264-6.848,15.264-15.264v-30.781h97.595v38.481H441.181z M468.708,378.87h-12.012v-62.34
	c0-7.357,2.11-14.602,6.006-20.802c3.896,6.2,6.006,13.446,6.006,20.802V378.87z"/>
<path d="M71.82,433.924c-4.146,0-7.507,3.36-7.507,7.507v29.028c0,4.147,3.361,7.507,7.507,7.507s7.507-3.36,7.507-7.507v-29.028
	C79.327,437.284,75.966,433.924,71.82,433.924z"/>
<path d="M159.906,468.958c-4.146,0-7.507,3.36-7.507,7.507v28.027c0,4.147,3.361,7.507,7.507,7.507s7.507-3.36,7.507-7.507v-28.027
	C167.413,472.318,164.052,468.958,159.906,468.958z"/>
<path d="M440.18,433.924c-4.146,0-7.507,3.36-7.507,7.507v29.028c0,4.147,3.361,7.507,7.507,7.507c4.146,0,7.507-3.36,7.507-7.507
	v-29.028C447.687,437.284,444.326,433.924,440.18,433.924z"/>
<path d="M352.094,468.958c-4.146,0-7.507,3.36-7.507,7.507v28.027c0,4.147,3.361,7.507,7.507,7.507s7.507-3.36,7.507-7.507v-28.027
	C359.601,472.318,356.24,468.958,352.094,468.958z"/>
<path d="M147.894,165.161c4.146,0,7.507-3.36,7.507-7.507v-39.162c0-4.147-3.361-7.507-7.507-7.507c-4.146,0-7.507,3.36-7.507,7.507
	v39.162C140.387,161.801,143.748,165.161,147.894,165.161z"/>
<path d="M91.339,201.573v39.162c0,4.147,3.361,7.507,7.507,7.507c4.146,0,7.507-3.36,7.507-7.507v-39.162
	c0-4.147-3.361-7.507-7.507-7.507C94.7,194.066,91.339,197.426,91.339,201.573z"/>
<path d="M413.153,248.242c4.146,0,7.507-3.36,7.507-7.507v-39.162c0-4.147-3.361-7.507-7.507-7.507s-7.507,3.36-7.507,7.507v39.162
	C405.646,244.882,409.007,248.242,413.153,248.242z"/>
<path d="M74.823,108.122c4.146,0,7.507-3.36,7.507-7.507V61.452c0-4.147-3.361-7.507-7.507-7.507c-4.146,0-7.507,3.36-7.507,7.507
	v39.162C67.316,104.76,70.677,108.122,74.823,108.122z"/>
<path d="M364.106,165.161c4.146,0,7.507-3.36,7.507-7.507v-39.162c0-4.147-3.361-7.507-7.507-7.507c-4.146,0-7.507,3.36-7.507,7.507
	v39.162C356.598,161.801,359.96,165.161,364.106,165.161z"/>
<path d="M437.177,108.122c4.146,0,7.507-3.36,7.507-7.507V61.452c0-4.147-3.361-7.507-7.507-7.507c-4.146,0-7.507,3.36-7.507,7.507
	v39.162C429.67,104.76,433.031,108.122,437.177,108.122z"/>
<path d="M256,54.177c4.146,0,7.507-3.36,7.507-7.507V7.507C263.507,3.36,260.146,0,256,0c-4.146,0-7.507,3.36-7.507,7.507V46.67
	C248.493,50.817,251.854,54.177,256,54.177z"/>
<path d="M57.382,167.473c6.557,2.355,10.866,6.292,13.172,12.036c1.48,3.686,4.973,6.035,8.938,6.035
	c0.071,0,0.143-0.001,0.214-0.002c4.057-0.087,7.548-2.608,8.896-6.424c2.284-6.473,5.893-10.262,11.359-11.924
	c3.849-1.171,6.542-4.515,6.863-8.519c0.317-3.96-1.783-7.649-5.351-9.397c-6.466-3.168-10.785-7.533-13.202-13.346
	c-1.458-3.509-4.859-5.839-8.664-5.937c-3.816-0.118-7.312,2.052-8.945,5.475c-3.035,6.356-7.71,11.018-14.287,14.25
	c-3.483,1.71-5.595,5.318-5.379,9.192C51.211,162.796,53.718,166.155,57.382,167.473z M79.2,150.126
	c2.019,2.695,4.397,5.129,7.126,7.293c-2.736,1.999-5.132,4.463-7.16,7.362c-2.152-2.655-4.699-4.966-7.631-6.926
	C74.424,155.587,76.981,153.007,79.2,150.126z"/>
<path d="M321.64,230.534c6.557,2.355,10.866,6.292,13.172,12.036c1.48,3.686,4.973,6.035,8.938,6.035
	c0.071,0,0.143-0.001,0.214-0.002c4.057-0.087,7.548-2.608,8.896-6.424c2.284-6.473,5.893-10.262,11.359-11.924
	c3.849-1.171,6.542-4.515,6.863-8.519c0.317-3.96-1.783-7.649-5.351-9.397c-6.466-3.168-10.785-7.533-13.202-13.346
	c-1.458-3.509-4.859-5.839-8.664-5.937c-3.83-0.116-7.313,2.052-8.945,5.475c-3.035,6.356-7.71,11.018-14.287,14.25
	c-3.483,1.71-5.595,5.318-5.379,9.192C315.469,225.858,317.977,229.217,321.64,230.534z M343.458,213.187
	c2.019,2.695,4.397,5.129,7.126,7.293c-2.736,1.999-5.132,4.463-7.16,7.362c-2.152-2.655-4.699-4.966-7.631-6.926
	C338.682,218.649,341.239,216.069,343.458,213.187z"/>
<g>
</g>
<g>
</g>
<g>
</g>
<g>
</g>
<g>
</g>
<g>
</g>
<g>
</g>
<g>
</g>
<g>
</g>
<g>
</g>
<g>
</g>
<g>
</g>
<g>
</g>
<g>
</g>
<g>
</g>
</svg>
